#!OML:ASF E:\emotionWalksFemale\Project 1\Capture day 1\Session 1\Female1.ASF
:FULLY-SPECIFIED
:DEGREES
887
root 9.37411 15.2398 -35.0949 178.088 4.32599 -178.111
lowerback 11.9849 1.57175 2.62902
upperback -1.53924 2.55105 0.522444
thorax -8.28959 1.1361 -1.4092
lowerneck -3.93382 -0.0662397 -3.05717
upperneck -2.24895 -0.113991 -1.3445
head -0.0428283 -0.0962071 0.0875127
rclavicle -8.37918e-015 -5.96354e-016
rhumerus -30.0264 -14.8514 -25.411
rradius 36.8205
rwrist 18.1288
rhand 6.19274 -60.1268
rfingers 7.12502
rthumb 31.507 -447.43
lclavicle -8.37918e-015 -5.96354e-016
lhumerus -43.437 2.9803 63.8683
lradius 62.4207
lwrist 4.07324
lhand -8.97326 -26.5578
lfingers 7.12502
lthumb 16.9722 2.72067
rfemur -12.5878 26.1206 18.8192
rtibia 30.217
rfoot -15.145 -13.9492
rtoes -24.2719
lfemur -15.4965 -21.0716 -19.5132
ltibia 35.1082
lfoot -21.7623 -0.569188
ltoes -37.3469
888
root 9.38721 15.2525 -35.1152 178.361 5.23301 -178.56
lowerback 12.1465 1.60992 2.22376
upperback -1.51446 2.53639 0.436151
thorax -8.36882 1.14333 -1.27557
lowerneck -3.86244 0.149255 -2.59305
upperneck -2.35388 0.142709 -1.71458
head -0.0879287 0.0277278 -0.0964028
rclavicle 4.60466e-016 1.18277e-014
rhumerus -27.8525 -14.973 -26.1731
rradius 37.0534
rwrist 17.5829
rhand 5.97116 -59.6503
rfingers 7.12502
rthumb 31.2958 -446.995
lclavicle 4.60466e-016 1.18277e-014
lhumerus -45.031 3.87299 63.3568
lradius 60.2091
lwrist 3.20506
lhand -7.89888 -26.3389
lfingers 7.12502
lthumb 18.0061 2.8476
rfemur -13.1045 26.8441 18.2761
rtibia 30.3679
rfoot -15.2171 -13.9368
rtoes -24.6792
lfemur -15.3566 -21.0869 -19.8841
ltibia 34.7553
lfoot -21.8127 0.197751
ltoes -36.5938
889
root 9.39627 15.2635 -35.1397 178.744 6.01507 -179
lowerback 11.948 1.6094 1.87712
upperback -1.40647 2.46957 0.361992
thorax -8.15105 1.1291 -1.13746
lowerneck -3.76085 0.298148 -2.47609
upperneck -2.60991 0.610603 -1.66884
head -0.181306 0.385708 -0.0979291
rclavicle -1.81702e-014 -5.76476e-015
rhumerus -25.6296 -15.0729 -27.0128
rradius 37.2599
rwrist 16.9705
rhand 5.57393 -59.5794
rfingers 7.12502
rthumb 30.9172 -446.997
lclavicle -1.81702e-014 -5.76476e-015
lhumerus -46.3656 4.67045 62.9583
lradius 57.7783
lwrist 2.03368
lhand -6.72015 -26.1918
lfingers 7.12502
lthumb 19.14 2.88635
rfemur -13.7119 27.2163 17.6361
rtibia 30.4666
rfoot -15.3689 -13.6823
rtoes -25.0133
lfemur -15.3533 -21.1214 -20.2471
ltibia 34.4303
lfoot -21.9109 0.9556
ltoes -36.4718
890
root 9.40984 15.2675 -35.1157 179.497 6.45333 -179.017
lowerback 12.3967 1.48579 1.8419
upperback -1.63459 2.31656 0.411315
thorax -8.66393 1.04754 -1.05605
lowerneck -3.9577 0.565211 -2.38346
upperneck -2.44356 0.971033 -1.80756
head -0.099877 0.560924 -0.149724
rclavicle 3.43307e-014 -2.98177e-016
rhumerus -23.4717 -15.2974 -27.8592
rradius 37.3981
rwrist 16.6239
rhand 5.34019 -59.7597
rfingers 7.12502
rthumb 30.6944 -447.219
lclavicle 3.43307e-014 -2.98177e-016
lhumerus -47.6881 5.19795 62.6623
lradius 55.1498
lwrist 0.874671
lhand -5.24475 -26.2278
lfingers 7.12502
lthumb 20.5582 2.70366
rfemur -14.982 27.54 17.2065
rtibia 30.509
rfoot -15.2552 -13.6525
rtoes -24.1954
lfemur -16.2738 -20.8534 -19.7578
ltibia 34.2427
lfoot -21.7053 0.903418
ltoes -36.1564
891
root 9.41197 15.2746 -35.1327 179.834 6.9051 -179.047
lowerback 12.6057 1.3247 2.05456
upperback -1.66312 2.1402 0.398953
thorax -8.81239 0.949087 -1.16168
lowerneck -3.83639 0.876528 -1.58497
upperneck -2.39109 1.34805 -2.63698
head -0.0919078 0.742366 -0.525384
rclavicle 1.13618e-014 1.25234e-014
rhumerus -21.2649 -15.5284 -28.8405
rradius 37.3323
rwrist 16.4403
rhand 5.15226 -59.7794
rfingers 7.12502
rthumb 30.5152 -447.272
lclavicle 1.13618e-014 1.25234e-014
lhumerus -49.0356 5.33308 62.5216
lradius 52.3294
lwrist -0.167598
lhand -3.72878 -26.2572
lfingers 7.12502
lthumb 22.0144 2.50989
rfemur -15.3757 27.6856 17.0238
rtibia 30.5009
rfoot -15.4595 -13.6184
rtoes -24.1783
lfemur -16.3652 -20.979 -19.7055
ltibia 34.0866
lfoot -21.8021 1.31486
ltoes -35.7636
892
root 9.41925 15.2801 -35.1497 180.124 7.12032 -179.132
lowerback 12.5325 1.1008 2.06092
upperback -1.46413 1.84523 0.445962
thorax -8.56496 0.814394 -1.05232
lowerneck -3.96019 1.16412 -1.117
upperneck -2.46168 1.72011 -3.12746
head -0.0815423 0.927848 -0.747834
rclavicle 1.36043e-014 -1.09332e-014
rhumerus -18.781 -15.8508 -29.9495
rradius 37.1951
rwrist 16.2533
rhand 5.08146 -60
rfingers 7.12502
rthumb 30.4477 -447.505
lclavicle 1.36043e-014 -1.09332e-014
lhumerus -49.9124 5.37793 62.7337
lradius 49.2313
lwrist -1.27442
lhand -2.61962 -26.0992
lfingers 7.12502
lthumb 23.079 2.53873
rfemur -15.6784 27.8386 16.8172
rtibia 30.5011
rfoot -15.534 -13.6741
rtoes -24.6857
lfemur -16.5072 -21.0971 -19.6952
ltibia 33.993
lfoot -21.9186 1.451
ltoes -35.1304
893
root 9.4307 15.285 -35.18 180.349 7.28306 -179.414
lowerback 12.166 0.931881 1.94605
upperback -1.15432 1.58943 0.413697
thorax -8.02957 0.706427 -0.960268
lowerneck -4.04163 1.38013 -0.819124
upperneck -2.60997 2.00332 -3.54946
head -0.102066 1.07336 -0.924496
rclavicle 1.51573e-015 -5.96354e-015
rhumerus -16.433 -16.2957 -31.0096
rradius 37.0748
rwrist 16.1412
rhand 5.07648 -60.3374
rfingers 7.12502
rthumb 30.4429 -447.844
lclavicle 1.51573e-015 -5.96354e-015
lhumerus -50.5427 5.2911 63.1693
lradius 46.1025
lwrist -2.77383
lhand -1.77997 -26.0075
lfingers 7.12502
lthumb 23.8844 2.52736
rfemur -15.8278 27.879 16.4459
rtibia 30.4373
rfoot -15.567 -13.6176
rtoes -24.9167
lfemur -16.5054 -21.1431 -19.942
ltibia 33.8549
lfoot -21.983 1.50843
ltoes -34.6166
894
root 9.44413 15.2867 -35.1905 180.506 7.44013 -179.74
lowerback 12.3797 0.812759 1.71227
upperback -1.04531 1.40155 0.40472
thorax -8.0447 0.626943 -0.805998
lowerneck -3.96621 1.55988 -0.573135
upperneck -2.66782 2.23618 -4.07448
head -0.118844 1.19316 -1.12745
rclavicle -1.13059e-015 4.96962e-015
rhumerus -14.3476 -16.47 -31.9517
rradius 36.924
rwrist 15.9262
rhand 4.91593 -60.4386
rfingers 7.12502
rthumb 30.2898 -447.973
lclavicle -1.13059e-015 4.96962e-015
lhumerus -51.257 5.01274 63.8019
lradius 42.9077
lwrist -4.91903
lhand -0.916424 -26.2505
lfingers 7.12502
lthumb 24.7123 2.17345
rfemur -16.0464 27.8458 16.019
rtibia 30.3465
rfoot -15.484 -13.4777
rtoes -25.234
lfemur -16.64 -21.1338 -20.1738
ltibia 33.8303
lfoot -21.9877 1.59899
ltoes -34.7145
895
root 9.45299 15.2933 -35.207 180.756 7.59403 -179.702
lowerback 12.3258 0.671316 1.91312
upperback -0.850062 1.25069 0.465698
thorax -7.80497 0.553437 -0.823638
lowerneck -3.92893 1.73424 -0.448604
upperneck -2.77392 2.46666 -4.40556
head -0.146859 1.3135 -1.25067
rclavicle -1.13804e-014 -2.5842e-015
rhumerus -12.2711 -16.6449 -32.9666
rradius 36.735
rwrist 15.8614
rhand 4.64238 -60.4584
rfingers 7.12502
rthumb 30.0288 -448.04
lclavicle -1.13804e-014 -2.5842e-015
lhumerus -51.6348 4.53802 64.7039
lradius 39.4242
lwrist -7.0367
lhand 0.236926 -26.5393
lfingers 7.12502
lthumb 25.8173 1.72866
rfemur -16.2246 27.8072 15.9563
rtibia 30.1897
rfoot -15.5171 -13.3583
rtoes -25.7152
lfemur -16.8613 -21.1312 -20.0476
ltibia 33.9456
lfoot -22.1484 1.77076
ltoes -34.9962
896
root 9.45753 15.2958 -35.2084 181.235 7.6713 -179.196
lowerback 12.5028 0.450809 2.49351
upperback -0.804535 1.07541 0.691755
thorax -7.85686 0.452761 -0.881097
lowerneck -4.05184 1.99161 -0.431342
upperneck -2.71071 2.81542 -4.51706
head -0.0978998 1.4859 -1.28253
rclavicle 9.31803e-015 -5.96354e-015
rhumerus -10.2393 -16.6855 -34.0482
rradius 36.6706
rwrist 16.0683
rhand 4.42768 -60.4531
rfingers 7.12502
rthumb 29.8239 -448.072
lclavicle 9.31803e-015 -5.96354e-015
lhumerus -52.0634 4.12517 65.7018
lradius 36.1309
lwrist -9.12353
lhand 2.48244 -26.4976
lfingers 7.12502
lthumb 27.9659 1.43927
rfemur -16.6174 27.9414 16.2794
rtibia 29.9307
rfoot -15.2262 -13.4452
rtoes -26.2854
lfemur -17.4946 -20.9703 -19.298
ltibia 34.2697
lfoot -22.3075 1.71223
ltoes -35.0057
897
root 9.45965 15.2948 -35.2107 181.683 7.71661 -178.692
lowerback 12.4742 0.286254 3.13824
upperback -0.675581 0.978129 0.898934
thorax -7.70012 0.392497 -1.00615
lowerneck -3.90881 2.17411 -0.193548
upperneck -2.84372 3.04605 -4.85899
head -0.147607 1.60584 -1.43092
rclavicle 2.23633e-015 -7.15625e-015
rhumerus -8.46669 -16.3971 -34.959
rradius 36.7866
rwrist 15.8679
rhand 3.98938 -60.353
rfingers 7.12502
rthumb 29.4056 -448.046
lclavicle 2.23633e-015 -7.15625e-015
lhumerus -52.4558 3.87262 66.5719
lradius 33.4216
lwrist -12.5686
lhand 5.67159 -26.5509
lfingers 7.12502
lthumb 31.0103 0.84863
rfemur -16.8957 28.0453 16.6205
rtibia 29.582
rfoot -14.7253 -13.5243
rtoes -26.6918
lfemur -18.1615 -20.7577 -18.5638
ltibia 34.7271
lfoot -22.4814 1.49787
ltoes -34.4855
